# xmcd
#
# Track frame offsets:
#	150
#	14300
#	31250
#	46737
#	62362
#	76850
#	96645
#	112687
#	128587
#	142972
#	155250
#	172412
#	193972
#	209300
#	226570
#	239855
#	254287
#	274212
#	291190
#
# Disc length: 4050 seconds
#
# Revision: 1
# Processed by: cddbd v1.4PL0 Copyright (c) Steve Scherf et al.
# Submitted via: audiograbber 1.80
#
DISCID=050fd013
DTITLE=Various Artist - Hott Country 049
DYEAR=1900
DGENRE=
TTITLE0=Faith Hill - The Way Love Me
TTITLE1=Farmer's Daughter - Walkin' In The Sunshine
TTITLE2=Lace - Kiss 'Em All
TTITLE3=Scooter Lee - You're On Your Own
TTITLE4=Mavericks - Here Comes My Baby
TTITLE5=Charlie Robison - My Hometown
TTITLE6=John Michael Montgomery - Nothing Catches Jesus By Surrise
TTITLE7=Kenny Chesney - What I Need To Be
TTITLE8=Yankee Grey - Another Nine Minutes
TTITLE9=Alan Jackson - She Just Started Liking Cheating Songs
TTITLE10=Brent Howard - Change
TTITLE11=Ty Herndon - No Mercy
TTITLE12=Jerry Kilgore - The Look
TTITLE13=Clint Black/Steve Wariner - Been There
TTITLE14=Trace Adkins - More
TTITLE15=Derailers - The Right Place
TTITLE16=Chalee Tennison - Just Because She Lives There
TTITLE17=Lorrie Morgan - To Get To You
TTITLE18=John McDermott - Here, There And Everywhere
EXTD=
EXTT0=
EXTT1=
EXTT2=
EXTT3=
EXTT4=
EXTT5=
EXTT6=
EXTT7=
EXTT8=
EXTT9=
EXTT10=
EXTT11=
EXTT12=
EXTT13=
EXTT14=
EXTT15=
EXTT16=
EXTT17=
EXTT18=
PLAYORDER=
